<svg xmlns="http://www.w3.org/2000/svg" version="1.1" xmlns:xlink="http://www.w3.org/1999/xlink" xmlns:svgjs="http://svgjs.com/svgjs" width="1440" height="560" preserveAspectRatio="none" viewBox="0 0 1440 560">
    <g mask="url(&quot;#SvgjsMask1046&quot;)" fill="none">
        <rect width="1440" height="560" x="0" y="0" fill="rgba(30, 30, 30, 1)"></rect>
        <path d="M0,507.908C92.914,520.552,172.011,439.685,243.797,379.356C308.677,324.83,362.275,258.35,391.574,178.826C419.502,103.024,408.06,22.493,405.018,-58.233C401.602,-148.891,418.497,-244.622,372.666,-322.917C323.368,-407.135,242.23,-479.714,146.683,-499.558C52.892,-519.037,-37.228,-464.274,-125.177,-426.312C-203.41,-392.544,-281.914,-356.993,-336.054,-291.193C-389.408,-226.348,-423.588,-145.14,-425.594,-61.191C-427.49,18.153,-386.734,89.79,-346.795,158.376C-310.15,221.305,-255.874,266.646,-204.585,318.34C-137.75,385.702,-94.025,495.113,0,507.908" fill="#191919"></path>
        <path d="M1440 1072.13C1537.584 1068.754 1565.109 929.948 1632.097 858.909 1679.996 808.113 1747.158 777.01 1777.557 714.157 1808.311 650.572 1814.944 577.38 1801.828 507.977 1789.048 440.351 1738.433 390.526 1705.0230000000001 330.356 1661.309 251.627 1651.638 147.25400000000002 1575.148 99.73000000000002 1494.915 49.88099999999997 1382.953 35.62900000000002 1298.387 77.70999999999998 1214.646 119.38 1211.238 238.055 1151.887 310.349 1094.886 379.781 973.605 402.201 959.198 490.871 944.8340000000001 579.278 1032.004 649.914 1084.983 722.131 1128.325 781.212 1186.9850000000001 821.063 1239.165 872.505 1307.772 940.142 1343.717 1075.461 1440 1072.13" fill="#232323"></path>
    </g>
    <defs>
        <mask id="SvgjsMask1046">
            <rect width="1440" height="560" fill="#ffffff"></rect>
        </mask>
    </defs>
</svg>